<?xml version="1.0" encoding="utf-8"?>
<!-- Generator: Adobe Illustrator 16.0.4, SVG Export Plug-In . SVG Version: 6.00 Build 0)  -->
<!DOCTYPE svg PUBLIC "-//W3C//DTD SVG 1.1//EN" "http://www.w3.org/Graphics/SVG/1.1/DTD/svg11.dtd">
<svg version="1.1" id="Layer_1" xmlns="http://www.w3.org/2000/svg" xmlns:xlink="http://www.w3.org/1999/xlink" x="0px" y="0px"
	 width="986.487px" height="201.172px" viewBox="0 0 986.487 201.172" enable-background="new 0 0 986.487 201.172"
	 xml:space="preserve">
<rect x="174.496" y="48.58" fill="#497BBE" width="3.75" height="152.52"/>
<path fill="#35A1D9" d="M0.064,51.377c0.164-0.217,0.304-0.457,0.494-0.647c8.218-8.225,16.44-16.446,24.664-24.666
	c0.14-0.139,0.302-0.255,0.454-0.381c0.52,0.005,1.039,0.016,1.559,0.016c43.418,0.001,86.836,0.001,130.252,0
	c5.998,0,11.994-0.007,17.992-0.012c0.547,0.522,1.106,1.033,1.642,1.567c7.718,7.713,15.435,15.428,23.144,23.149
	c0.303,0.303,0.705,0.532,0.838,0.985c-8.549,0.01-17.096,0.021-25.643,0.031c-8.395-0.009-16.788-0.018-25.182-0.027
	c-0.168,0.001-0.336,0.002-0.504,0.003c-0.199-0.005-0.399-0.016-0.6-0.016c-32.277,0-64.557-0.001-96.836,0.001
	c-0.319,0-0.639,0.023-0.958,0.036c-8.559,0-17.119,0.001-25.678,0.002c-8.455-0.001-16.909-0.003-25.363-0.004
	C0.249,51.401,0.156,51.389,0.064,51.377z"/>
<path fill="#4667B1" d="M149.774,51.395c0.168-0.001,0.336-0.002,0.504-0.003c0.166,0.479,0.592,0.742,0.925,1.075
	c8.009,8.03,16.024,16.054,24.039,24.079c0.149,0.173,0.301,0.346,0.45,0.519c-0.422,0.442-0.221,0.991-0.221,1.487
	c-0.013,40.851-0.014,81.699-0.015,122.548c-8.56,0-17.117,0-25.675,0c-0.014-8.625-0.027-17.252-0.04-25.879
	c0-8.479,0-16.961,0-25.439C149.756,149.58,149.778,83.991,149.774,51.395z"/>
<path fill="#F05243" d="M149.743,149.779c0,8.479,0,16.96,0,25.439c-40.656,0-81.312,0-121.968-0.001
	c-0.24,0-0.48,0.011-0.719,0.001c-0.694-0.029-0.55,0.373-0.409,0.778c-2.664-2.335-5.058-4.944-7.565-7.437
	c-6.07-6.037-12.122-12.09-18.176-18.143c-0.25-0.25-0.454-0.547-0.679-0.822c0.517-0.019,1.035-0.05,1.552-0.051
	c7.975-0.011,15.949-0.018,23.923-0.025c8.547,0.008,17.094,0.014,25.642,0.02c0.422,0.467,0.974,0.227,1.458,0.227
	C85.115,149.779,117.429,149.779,149.743,149.779z"/>
<path fill="#4BBAEB" d="M175.479,25.687c-5.996,0.004-11.994,0.012-17.99,0.012c-43.418,0.001-86.835,0.001-130.253,0
	c-0.52,0-1.039-0.01-1.559-0.016c1.313-1.341,2.617-2.692,3.943-4.02c6.922-6.931,13.859-13.848,20.765-20.795
	C50.998,0.25,51.601,0,52.474,0c32.067,0.022,64.134,0.02,96.201,0.013c0.694,0,1.276,0.058,1.832,0.616
	c8.184,8.215,16.393,16.403,24.596,24.599C175.24,25.368,175.354,25.533,175.479,25.687z"/>
<path fill="#D94133" d="M26.647,175.998c-0.141-0.405-0.286-0.809,0.409-0.777c0.239,0.01,0.479-0.002,0.719-0.002
	c40.656,0.002,81.312,0.002,121.968,0.002c0.013,8.625,0.025,17.252,0.04,25.879c-0.399,0.014-0.798,0.037-1.197,0.037
	c-31.835,0.002-63.671-0.002-95.506,0.023c-1,0-1.698-0.282-2.404-0.992c-7.812-7.863-15.657-15.695-23.49-23.538
	C26.99,176.436,26.826,176.209,26.647,175.998z"/>
<path fill="#5174B9" d="M175.458,201.1c0.001-40.85,0.002-81.699,0.016-122.549c0-0.496-0.201-1.045,0.221-1.487
	c0.354,0.321,0.72,0.628,1.058,0.965c7.794,7.789,15.584,15.582,23.379,23.37c0.306,0.306,0.657,0.566,0.986,0.849
	c0.009,0.521,0.024,1.039,0.024,1.558c0.002,31.953-0.006,63.907,0.028,95.86c0.002,1.185-0.245,1.519-1.479,1.507
	C191.614,201.096,183.536,201.111,175.458,201.1z"/>
<path fill="#F19643" d="M25.702,149.521c-7.974,0.008-15.948,0.015-23.923,0.024c-0.517,0.001-1.035,0.032-1.552,0.05
	c-0.341-0.328-0.197-0.753-0.197-1.134c-0.007-32.083-0.007-64.167-0.005-96.25c0-0.279,0.026-0.558,0.04-0.836
	c0.092,0.012,0.184,0.024,0.276,0.037c0.121,0.155,0.229,0.324,0.367,0.462c8.151,8.155,16.304,16.309,24.46,24.459
	c0.167,0.167,0.365,0.304,0.549,0.454c0.01,0.069,0.02,0.137,0.028,0.206c-0.014,0.559-0.04,1.118-0.04,1.676
	C25.702,102.289,25.702,125.904,25.702,149.521z"/>
<path fill="#263F89" d="M201.117,102.247c-0.329-0.282-0.681-0.543-0.986-0.849c-7.795-7.789-15.585-15.582-23.379-23.37
	c-0.338-0.337-0.704-0.644-1.058-0.965c-0.15-0.173-0.301-0.346-0.451-0.519c0.367-0.315,0.214-0.743,0.214-1.121
	c0.008-8.002,0.005-16.004,0.004-24.006c8.547-0.01,17.095-0.021,25.642-0.031c0.015,0.438,0.039,0.877,0.039,1.316
	c0.002,16.115,0.002,32.229,0.002,48.345C201.142,101.448,201.125,101.848,201.117,102.247z"/>
<path fill="#75401B" d="M51.382,51.417c0,16.607,0.001,33.215,0,49.822c0,0.397-0.025,0.797-0.038,1.196
	c-0.296-0.266-0.604-0.518-0.885-0.799c-5.657-5.651-11.307-11.31-16.965-16.958c-2.574-2.57-5.165-5.123-7.748-7.683
	c-0.008-0.069-0.018-0.137-0.028-0.206c-0.005-8.457-0.009-16.914-0.013-25.372C34.263,51.418,42.823,51.417,51.382,51.417z"/>
<path fill="#8C4D21" d="M25.704,51.418c0.004,8.458,0.008,16.915,0.013,25.372c-0.184-0.151-0.382-0.288-0.549-0.455
	c-8.156-8.15-16.309-16.304-24.46-24.459c-0.138-0.138-0.246-0.308-0.367-0.462C8.795,51.416,17.249,51.417,25.704,51.418z"/>
<path fill="#273774" d="M175.46,51.418c0.001,8.002,0.004,16.004-0.004,24.006c0,0.377,0.154,0.805-0.214,1.121
	c-8.015-8.025-16.03-16.048-24.039-24.079c-0.333-0.333-0.757-0.597-0.925-1.075C158.672,51.4,167.065,51.41,175.46,51.418z"/>
<path fill="#D87D32" d="M25.745,76.996c2.583,2.56,5.174,5.113,7.748,7.683c5.659,5.649,11.309,11.307,16.965,16.958
	c0.281,0.281,0.589,0.533,0.885,0.799c0.013,1.597,0.038,3.193,0.038,4.791c0.003,13.627,0.002,27.252,0,40.879
	c0,0.479-0.025,0.957-0.038,1.436c-8.547-0.006-17.095-0.012-25.642-0.02c0-23.615,0-47.232,0.003-70.85
	C25.705,78.113,25.731,77.554,25.745,76.996z"/>
<path fill="#FFFFFF" d="M260.422,138.796h-3.842v21.901h-26.484v-21.901h-3.842v46.624h3.842v-21.455h26.484v21.455h3.842V138.796z"
	/>
<path fill="#FFFFFF" d="M291.691,184.829c1.976-0.844,3.572-1.908,4.789-3.188l-1.633-2.626c-1.177,1.176-2.649,2.11-4.419,2.804
	c-1.773,0.693-3.715,1.041-5.828,1.041c-3.523,0-6.284-1.303-8.28-3.908c-1.996-2.604-2.993-5.881-2.993-9.829v-1.058h24.114v-2.979
	c0-4.567-1.149-8.202-3.444-10.903c-2.295-2.7-5.544-4.053-9.749-4.053c-4.187,0-7.692,1.625-10.522,4.868
	c-2.828,3.247-4.24,7.368-4.24,12.362v1.763c0,4.974,1.396,9.046,4.194,12.217c2.798,3.17,6.437,4.755,10.921,4.755
	C287.354,186.094,289.717,185.673,291.691,184.829z M291.179,156.393c1.612,1.996,2.42,4.53,2.42,7.604v0.8h-19.855l-0.096-0.192
	c0.32-3.243,1.429-5.924,3.331-8.038c1.898-2.112,4.323-3.17,7.27-3.17C287.259,153.396,289.566,154.396,291.179,156.393z"/>
<path fill="#FFFFFF" d="M331.13,185.42c-0.32-1.131-0.552-2.272-0.689-3.425c-0.14-1.155-0.207-2.338-0.207-3.557v-17.036
	c0-3.628-1.153-6.414-3.458-8.358c-2.306-1.941-5.36-2.915-9.159-2.915c-3.801,0-6.882,0.989-9.241,2.965
	c-2.358,1.975-3.472,4.265-3.345,6.866l0.064,0.194h3.555c0-1.942,0.804-3.557,2.416-4.837c1.612-1.279,3.732-1.921,6.358-1.921
	c2.858,0,5.074,0.704,6.644,2.114c1.568,1.407,2.355,3.353,2.355,5.829v4.289h-8.519c-4.335,0-7.858,0.961-10.567,2.884
	c-2.713,1.921-4.067,4.43-4.067,7.523c0,3.098,0.933,5.547,2.8,7.352c1.869,1.804,4.502,2.706,7.896,2.706
	c2.795,0,5.271-0.614,7.43-1.842c2.153-1.227,3.83-2.78,5.027-4.66c0,0.919,0.057,1.815,0.174,2.691
	c0.117,0.875,0.294,1.921,0.53,3.137H331.13z M309.048,180.903c-1.292-1.193-1.936-2.773-1.936-4.739
	c0-2.09,1.012-3.878,3.042-5.361c2.028-1.484,4.6-2.228,7.718-2.228h8.551v6.629c-0.77,2.2-2.231,3.999-4.387,5.398
	c-2.159,1.397-4.708,2.095-7.654,2.095C312.117,182.697,310.34,182.102,309.048,180.903z"/>
<path fill="#FFFFFF" d="M344.74,135.463h-3.812v49.957h3.812V135.463z"/>
<path fill="#FFFFFF" d="M357.452,141.899v8.87h-5.987v3.139h5.987v22.576c0,3.331,0.678,5.765,2.033,7.302s3.252,2.308,5.685,2.308
	c0.747,0,1.499-0.08,2.257-0.24s1.395-0.368,1.907-0.625l-0.577-2.852c-0.6,0.128-1.116,0.221-1.555,0.274
	c-0.438,0.054-0.891,0.08-1.359,0.08c-1.366,0-2.462-0.476-3.283-1.425c-0.822-0.95-1.231-2.557-1.231-4.822v-22.576h7.622v-3.139
	h-7.622v-8.87H357.452z"/>
<path fill="#FFFFFF" d="M380.285,135.463h-3.842v49.957h3.842v-24.723c0.81-2.197,2.085-3.953,3.825-5.266
	c1.74-1.313,3.957-1.97,6.646-1.97c2.604,0,4.647,0.817,6.131,2.449c1.484,1.634,2.228,4.329,2.228,8.086v21.423h3.843v-21.359
	c0-4.76-0.979-8.271-2.932-10.537c-1.953-2.26-4.754-3.395-8.404-3.395c-2.562,0-4.801,0.573-6.711,1.716
	c-1.911,1.143-3.453,2.749-4.626,4.819V135.463z"/>
<path fill="#FFFFFF" d="M454.836,185.42c-0.32-1.131-0.552-2.272-0.69-3.425c-0.139-1.155-0.206-2.338-0.206-3.557v-17.036
	c0-3.628-1.152-6.414-3.459-8.358c-2.306-1.941-5.36-2.915-9.158-2.915c-3.8,0-6.882,0.989-9.241,2.965
	c-2.359,1.975-3.473,4.265-3.344,6.866l0.063,0.194h3.555c0-1.942,0.805-3.557,2.417-4.837c1.61-1.279,3.732-1.921,6.357-1.921
	c2.859,0,5.073,0.704,6.644,2.114c1.569,1.407,2.355,3.353,2.355,5.829v4.289h-8.519c-4.336,0-7.857,0.961-10.568,2.884
	c-2.713,1.921-4.066,4.43-4.066,7.523c0,3.098,0.933,5.547,2.801,7.352c1.867,1.804,4.501,2.706,7.896,2.706
	c2.794,0,5.271-0.614,7.429-1.842c2.154-1.227,3.83-2.78,5.028-4.66c0,0.919,0.057,1.815,0.175,2.691
	c0.117,0.875,0.292,1.921,0.529,3.137H454.836z M432.755,180.903c-1.292-1.193-1.937-2.773-1.937-4.739
	c0-2.09,1.013-3.878,3.043-5.361c2.027-1.484,4.599-2.228,7.718-2.228h8.55v6.629c-0.769,2.2-2.231,3.999-4.388,5.398
	c-2.157,1.397-4.707,2.095-7.653,2.095C435.823,182.697,434.045,182.102,432.755,180.903z"/>
<path fill="#FFFFFF" d="M464.155,150.77v34.65h3.843v-24.529c0.745-2.263,1.957-4.066,3.633-5.411
	c1.676-1.347,3.88-2.018,6.614-2.018c2.732,0,4.84,0.822,6.322,2.465c1.483,1.645,2.229,4.451,2.229,8.421v21.072h3.842v-21.104
	c0-4.865-0.983-8.447-2.946-10.741c-1.966-2.295-4.824-3.445-8.582-3.445c-2.585,0-4.815,0.584-6.692,1.747
	c-1.881,1.164-3.386,2.801-4.516,4.916l-0.352-6.022H464.155z"/>
<path fill="#FFFFFF" d="M499.156,169.055c0,5.19,1.167,9.327,3.505,12.411c2.338,3.085,5.577,4.628,9.721,4.628
	c2.454,0,4.59-0.493,6.404-1.474c1.813-0.981,3.31-2.391,4.484-4.227l0.543,5.026h3.14v-49.957h-3.844v20.431
	c-1.174-1.834-2.654-3.253-4.437-4.259c-1.782-1.001-3.856-1.506-6.227-1.506c-4.187,0-7.447,1.662-9.785,4.982
	c-2.338,3.319-3.505,7.744-3.505,13.273V169.055z M502.999,168.385c0-4.42,0.847-8.011,2.544-10.776
	c1.697-2.765,4.232-4.146,7.607-4.146c2.562,0,4.644,0.619,6.244,1.855c1.602,1.24,2.839,2.841,3.715,4.804v16.429
	c-0.919,1.943-2.198,3.465-3.842,4.564c-1.646,1.099-3.706,1.647-6.181,1.647c-3.375,0-5.9-1.237-7.576-3.713
	c-1.676-2.477-2.512-5.807-2.512-9.994V168.385z"/>
<path fill="#FFFFFF" d="M576.941,180.409c-2.242,1.634-5.147,2.45-8.711,2.45c-3.481,0-6.577-0.881-9.287-2.643
	c-2.711-1.761-4.066-4.445-4.066-8.053h-3.555l-0.063,0.189c-0.109,4.483,1.545,7.896,4.963,10.233
	c3.414,2.338,7.417,3.507,12.009,3.507c4.589,0,8.395-1.104,11.415-3.314s4.532-5.129,4.532-8.761c0-3.456-1.293-6.231-3.874-8.326
	c-2.584-2.09-6.332-3.852-11.241-5.283c-4.72-1.321-8.012-2.746-9.88-4.273c-1.869-1.526-2.801-3.476-2.801-5.846
	c0-2.498,1.028-4.604,3.089-6.323c2.06-1.719,4.905-2.58,8.535-2.58c3.523,0,6.398,1.016,8.629,3.042
	c2.23,2.03,3.349,4.58,3.349,7.654h3.586l0.064-0.191c0.084-3.991-1.312-7.284-4.195-9.878s-6.692-3.893-11.433-3.893
	c-4.506,0-8.21,1.149-11.111,3.444c-2.905,2.295-4.355,5.225-4.355,8.79c0,3.501,1.295,6.271,3.89,8.311
	c2.594,2.039,6.378,3.741,11.354,5.105c4.547,1.368,7.77,2.83,9.671,4.388c1.9,1.56,2.851,3.534,2.851,5.926
	C580.304,176.668,579.183,178.776,576.941,180.409z"/>
<path fill="#FFFFFF" d="M618.635,185.42c-0.32-1.131-0.551-2.272-0.689-3.425c-0.139-1.155-0.206-2.338-0.206-3.557v-17.036
	c0-3.628-1.153-6.414-3.459-8.358c-2.307-1.941-5.361-2.915-9.159-2.915c-3.8,0-6.881,0.989-9.24,2.965
	c-2.358,1.975-3.472,4.265-3.345,6.866l0.064,0.194h3.555c0-1.942,0.804-3.557,2.416-4.837c1.611-1.279,3.732-1.921,6.358-1.921
	c2.858,0,5.074,0.704,6.643,2.114c1.569,1.407,2.355,3.353,2.355,5.829v4.289h-8.519c-4.335,0-7.857,0.961-10.567,2.884
	c-2.713,1.921-4.066,4.43-4.066,7.523c0,3.098,0.933,5.547,2.8,7.352c1.867,1.804,4.501,2.706,7.896,2.706
	c2.797,0,5.271-0.614,7.429-1.842c2.155-1.227,3.831-2.78,5.028-4.66c0,0.919,0.057,1.815,0.175,2.691
	c0.117,0.875,0.294,1.921,0.529,3.137H618.635z M596.554,180.903c-1.292-1.193-1.936-2.773-1.936-4.739
	c0-2.09,1.012-3.878,3.042-5.361c2.028-1.484,4.599-2.228,7.718-2.228h8.55v6.629c-0.769,2.2-2.23,3.999-4.388,5.398
	c-2.157,1.397-4.707,2.095-7.652,2.095C599.622,182.697,597.846,182.102,596.554,180.903z"/>
<path fill="#FFFFFF" d="M634.423,185.42v-31.512h7.846v-3.139h-7.846v-5.06c0-2.389,0.559-4.246,1.68-5.569
	c1.12-1.324,2.727-1.987,4.82-1.987c0.725,0,1.356,0.039,1.891,0.113c0.531,0.074,1.057,0.175,1.568,0.303l0.513-3.17
	c-0.769-0.192-1.519-0.34-2.242-0.449c-0.728-0.104-1.432-0.159-2.113-0.159c-3.138,0-5.585,0.951-7.333,2.851
	c-1.751,1.9-2.626,4.591-2.626,8.068v5.06h-5.731v3.139h5.731v31.512H634.423z"/>
<path fill="#FFFFFF" d="M668.51,184.829c1.975-0.844,3.573-1.908,4.789-3.188l-1.633-2.626c-1.176,1.176-2.649,2.11-4.42,2.804
	c-1.773,0.693-3.714,1.041-5.827,1.041c-3.523,0-6.284-1.303-8.28-3.908c-1.997-2.604-2.993-5.881-2.993-9.829v-1.058h24.114v-2.979
	c0-4.567-1.148-8.202-3.444-10.903c-2.295-2.7-5.544-4.053-9.749-4.053c-4.187,0-7.693,1.625-10.521,4.868
	c-2.829,3.247-4.241,7.368-4.241,12.362v1.763c0,4.974,1.396,9.046,4.195,12.217c2.796,3.17,6.437,4.755,10.92,4.755
	C664.173,186.094,666.535,185.673,668.51,184.829z M667.997,156.393c1.612,1.996,2.42,4.53,2.42,7.604v0.8h-19.854l-0.097-0.192
	c0.32-3.243,1.43-5.924,3.331-8.038c1.898-2.112,4.323-3.17,7.27-3.17C664.076,153.396,666.386,154.396,667.997,156.393z"/>
<path fill="#FFFFFF" d="M684.123,141.899v8.87h-5.989v3.139h5.989v22.576c0,3.331,0.676,5.765,2.031,7.302s3.253,2.308,5.687,2.308
	c0.745,0,1.498-0.08,2.256-0.24s1.395-0.368,1.906-0.625l-0.575-2.852c-0.599,0.128-1.118,0.221-1.556,0.274s-0.891,0.08-1.359,0.08
	c-1.368,0-2.462-0.476-3.284-1.425c-0.821-0.95-1.23-2.557-1.23-4.822v-22.576h7.621v-3.139h-7.621v-8.87H684.123z"/>
<path fill="#FFFFFF" d="M703.433,150.77h-4.259l13.386,34.202l-1.825,4.675c-0.704,1.859-1.559,3.38-2.562,4.565
	c-1.006,1.185-2.338,1.775-4.003,1.775c-0.256,0-0.669-0.025-1.235-0.078c-0.565-0.054-0.975-0.104-1.231-0.145l-0.447,3.202
	c0.297,0.104,0.768,0.209,1.408,0.305s1.186,0.144,1.634,0.144c2.754,0,4.844-0.823,6.276-2.467c1.429-1.645,2.594-3.641,3.49-5.989
	l15.052-40.189h-4.291l-10.472,29.397h-0.192l-1.217-4.131L703.433,150.77z"/>
<path fill="#FFFFFF" d="M774.973,180.409c-2.241,1.634-5.145,2.45-8.71,2.45c-3.479,0-6.577-0.881-9.287-2.643
	c-2.711-1.761-4.066-4.445-4.066-8.053h-3.555l-0.064,0.189c-0.108,4.483,1.547,7.896,4.964,10.233
	c3.414,2.338,7.417,3.507,12.009,3.507c4.59,0,8.394-1.104,11.414-3.314c3.021-2.21,4.534-5.129,4.534-8.761
	c0-3.456-1.294-6.231-3.876-8.326c-2.584-2.09-6.329-3.852-11.239-5.283c-4.72-1.321-8.014-2.746-9.881-4.273
	c-1.868-1.526-2.8-3.476-2.8-5.846c0-2.498,1.027-4.604,3.088-6.323s4.904-2.58,8.536-2.58c3.521,0,6.397,1.016,8.628,3.042
	c2.231,2.03,3.348,4.58,3.348,7.654h3.587l0.064-0.191c0.083-3.991-1.313-7.284-4.194-9.878c-2.883-2.594-6.693-3.893-11.433-3.893
	c-4.507,0-8.21,1.149-11.112,3.444c-2.905,2.295-4.355,5.225-4.355,8.79c0,3.501,1.295,6.271,3.89,8.311
	c2.593,2.039,6.378,3.741,11.354,5.105c4.548,1.368,7.77,2.83,9.671,4.388c1.9,1.56,2.85,3.534,2.85,5.926
	C778.335,176.668,777.215,178.776,774.973,180.409z"/>
<path fill="#FFFFFF" d="M810.981,184.829c1.975-0.844,3.573-1.908,4.789-3.188l-1.633-2.626c-1.174,1.176-2.646,2.11-4.42,2.804
	c-1.772,0.693-3.714,1.041-5.827,1.041c-3.522,0-6.284-1.303-8.28-3.908c-1.995-2.604-2.992-5.881-2.992-9.829v-1.058h24.113v-2.979
	c0-4.567-1.148-8.202-3.444-10.903c-2.295-2.7-5.544-4.053-9.749-4.053c-4.184,0-7.692,1.625-10.521,4.868
	c-2.828,3.247-4.242,7.368-4.242,12.362v1.763c0,4.974,1.396,9.046,4.196,12.217c2.795,3.17,6.437,4.755,10.92,4.755
	C806.645,186.094,809.007,185.673,810.981,184.829z M810.47,156.393c1.611,1.996,2.42,4.53,2.42,7.604v0.8h-19.855l-0.096-0.192
	c0.32-3.243,1.429-5.924,3.33-8.038c1.9-2.112,4.323-3.17,7.27-3.17C806.549,153.396,808.857,154.396,810.47,156.393z"/>
<path fill="#FFFFFF" d="M840.78,150.481c-0.277-0.083-0.631-0.163-1.056-0.237c-0.429-0.076-0.877-0.115-1.346-0.115
	c-2.329,0-4.335,0.601-6.021,1.795c-1.687,1.196-3.033,2.861-4.033,4.994v-0.382l-0.481-5.767h-3.362v34.65h3.844V161.5
	c0.658-2.37,1.765-4.233,3.312-5.589c1.548-1.355,3.528-2.033,5.942-2.033l2.722,0.19L840.78,150.481z"/>
<path fill="#FFFFFF" d="M847.762,150.77h-3.971l13.193,34.65h3.075l13.162-34.65h-3.972l-9.415,25.972l-1.217,4.068h-0.191
	l-1.122-4.068L847.762,150.77z"/>
<path fill="#FFFFFF" d="M883.82,150.77h-3.812v34.65h3.812V150.77z M883.82,135.463h-3.812v5.382h3.812V135.463z"/>
<path fill="#FFFFFF" d="M898.968,178.872c-1.773-2.657-2.658-6.025-2.658-10.104v-1.345c0-4.012,0.885-7.354,2.658-10.021
	c1.77-2.669,4.471-4.005,8.103-4.005c2.624,0,4.846,0.828,6.659,2.482c1.814,1.655,2.723,3.87,2.723,6.646h3.427l0.064-0.194
	c0.083-3.649-1.11-6.597-3.587-8.838c-2.479-2.239-5.572-3.363-9.286-3.363c-4.612,0-8.199,1.625-10.761,4.868
	c-2.562,3.247-3.842,7.389-3.842,12.426v1.345c0,5.059,1.283,9.214,3.856,12.456c2.571,3.247,6.166,4.87,10.777,4.87
	c3.436,0,6.456-1.078,9.062-3.234c2.603-2.156,3.862-4.836,3.779-8.038l-0.064-0.193h-3.427c0,2.585-0.946,4.603-2.836,6.054
	c-1.889,1.452-4.062,2.178-6.515,2.178C903.451,182.859,900.737,181.53,898.968,178.872z"/>
<path fill="#FFFFFF" d="M948.426,184.829c1.975-0.844,3.572-1.908,4.789-3.188l-1.633-2.626c-1.176,1.176-2.648,2.11-4.419,2.804
	c-1.774,0.693-3.715,1.041-5.829,1.041c-3.522,0-6.283-1.303-8.279-3.908c-1.996-2.604-2.992-5.881-2.992-9.829v-1.058h24.113
	v-2.979c0-4.567-1.149-8.202-3.444-10.903c-2.295-2.7-5.543-4.053-9.749-4.053c-4.185,0-7.693,1.625-10.521,4.868
	c-2.829,3.247-4.241,7.368-4.241,12.362v1.763c0,4.974,1.396,9.046,4.195,12.217c2.796,3.17,6.437,4.755,10.919,4.755
	C944.088,186.094,946.451,185.673,948.426,184.829z M947.914,156.393c1.61,1.996,2.419,4.53,2.419,7.604v0.8h-19.854l-0.096-0.192
	c0.32-3.243,1.429-5.924,3.33-8.038c1.898-2.112,4.323-3.17,7.27-3.17C943.992,153.396,946.302,154.396,947.914,156.393z"/>
<path fill="#FFFFFF" d="M980.275,181c-1.602,1.239-3.792,1.859-6.565,1.859c-2.562,0-4.789-0.565-6.679-1.699
	c-1.889-1.13-2.908-2.945-3.057-5.444h-3.522l-0.063,0.193c-0.129,2.776,1.007,5.168,3.408,7.173
	c2.402,2.009,5.706,3.012,9.913,3.012c3.844,0,6.932-0.902,9.27-2.706c2.338-1.805,3.508-4.148,3.508-7.031
	c0-2.709-1.042-4.867-3.124-6.468c-2.081-1.602-5.149-2.85-9.204-3.747c-3.61-0.789-6.018-1.701-7.224-2.736
	s-1.808-2.343-1.808-3.925c0-1.621,0.704-3.042,2.113-4.26c1.409-1.214,3.499-1.824,6.277-1.824c2.689,0,4.85,0.704,6.482,2.114
	c1.633,1.407,2.451,3.063,2.451,4.964h3.556l0.063-0.194c0.106-2.858-0.993-5.265-3.299-7.219c-2.306-1.953-5.393-2.933-9.254-2.933
	c-3.674,0-6.626,0.921-8.857,2.754c-2.23,1.839-3.345,4.081-3.345,6.728c0,2.668,0.997,4.744,2.993,6.229
	c1.996,1.483,5.045,2.653,9.144,3.505c3.479,0.77,5.886,1.757,7.221,2.964c1.334,1.207,2.003,2.621,2.003,4.242
	C982.677,178.278,981.876,179.764,980.275,181z"/>
<path fill="#FFFFFF" d="M259.863,65.802c3.379,0,5.914,0.462,7.603,1.387c3.009,1.637,4.512,4.839,4.512,9.607
	c0,4.412-1.553,7.365-4.663,8.86c-1.758,0.854-4.395,1.281-7.908,1.281h-17.69V65.802H259.863z M263.279,52.138H225.65v78.67h16.065
	V99.959h16.056c4.576,0,7.698,0.836,9.365,2.508c1.665,1.673,2.531,5.018,2.6,10.035l0.106,7.312
	c0.035,2.312,0.267,4.572,0.693,6.778c0.214,1.067,0.57,2.473,1.067,4.216h18.147v-1.975c-1.591-0.961-2.604-2.455-3.035-4.483
	c-0.291-1.28-0.435-3.718-0.435-7.312v-5.283c0-5.517-0.757-9.615-2.269-12.303c-1.513-2.685-4.083-4.759-7.712-6.217
	c4.341-1.495,7.454-4.046,9.34-7.659c1.886-3.61,2.829-7.286,2.829-11.021c0-3.096-0.485-5.854-1.457-8.272
	c-0.972-2.42-2.292-4.626-3.957-6.618c-2.011-2.42-4.465-4.252-7.363-5.498S268.655,52.245,263.279,52.138L263.279,52.138z"/>
<path fill="#FFFFFF" d="M327.22,83.628c3.59,0,6.596,1.046,9.023,3.136c2.423,2.091,3.775,5.154,4.051,9.193h-26.206
	c0.554-3.788,1.902-6.79,4.051-9.006C320.29,84.736,323.315,83.628,327.22,83.628L327.22,83.628z M327.216,71.085
	c-8.526,0-15.464,2.69-20.805,8.066c-5.345,5.378-8.014,13.106-8.014,23.183c0,10.755,2.958,18.519,8.877,23.292
	c5.919,4.771,12.751,7.157,20.49,7.157c9.382,0,16.677-2.829,21.889-8.486c3.349-3.559,5.229-7.063,5.638-10.515h-15.529
	c-0.905,1.708-1.95,3.043-3.131,4.002c-2.166,1.78-4.981,2.669-8.445,2.669c-3.269,0-6.064-0.729-8.389-2.188
	c-3.817-2.349-5.846-6.44-6.082-12.275h42.371c0.076-5.024-0.092-8.874-0.501-11.546c-0.708-4.562-2.253-8.57-4.637-12.027
	c-2.644-3.919-5.995-6.789-10.052-8.607C336.837,71.995,332.277,71.085,327.216,71.085L327.216,71.085z"/>
<path fill="#FFFFFF" d="M360.147,112.235c0,5.978,2.184,10.898,6.554,14.758c4.365,3.86,11.131,5.791,20.295,5.791
	c8.985,0,15.624-1.823,19.919-5.471c4.299-3.646,6.445-8.354,6.445-14.117c0-4.377-1.494-8.023-4.483-10.942
	c-3.024-2.881-7.566-5.034-13.626-6.457c-9.09-1.993-14.384-3.398-15.882-4.216c-1.499-0.783-2.248-2.046-2.248-3.79
	c0-1.388,0.706-2.598,2.115-3.629c1.408-1.032,3.771-1.547,7.091-1.547c4.03,0,6.885,1.032,8.562,3.095
	c0.892,1.139,1.443,2.687,1.658,4.643h15.211c-0.678-7.116-3.307-12.122-7.89-15.024c-4.581-2.898-10.511-4.349-17.784-4.349
	c-7.665,0-13.611,1.932-17.836,5.791c-4.228,3.862-6.339,8.477-6.339,13.85c0,4.555,1.352,8.042,4.056,10.461
	c2.705,2.455,7.361,4.5,13.971,6.137c9.184,2.172,14.489,3.701,15.914,4.591c1.426,0.889,2.139,2.188,2.139,3.896
	c0,1.78-0.884,3.114-2.654,4.003c-1.77,0.891-4.156,1.335-7.158,1.335c-5.114,0-8.617-1.015-10.514-3.043
	c-1.071-1.138-1.769-3.06-2.09-5.764H360.147z"/>
<path fill="#FFFFFF" d="M474.952,93.501c-0.855-8.29-3.606-14.072-8.253-17.346c-4.651-3.273-10.625-4.91-17.927-4.91
	c-8.581,0-15.313,2.775-20.194,8.326c-4.879,5.55-7.319,13.316-7.319,23.294c0,8.844,2.209,16.041,6.626,21.591
	c4.417,5.552,11.309,8.327,20.674,8.327c9.369,0,16.439-3.327,21.211-9.981c2.992-4.127,4.665-8.504,5.022-13.13h-15.531
	c-0.322,3.062-1.229,5.552-2.728,7.474c-1.497,1.92-4.031,2.881-7.599,2.881c-5.028,0-8.451-2.419-10.272-7.258
	c-0.998-2.591-1.497-6.016-1.497-10.276c0-4.469,0.499-8.056,1.497-10.752c1.89-5.088,5.403-7.633,10.541-7.633
	c3.602,0,6.26,1.174,7.971,3.523c1.178,1.744,1.909,3.7,2.193,5.871H474.952z"/>
<path fill="#FFFFFF" d="M484.933,72.633v35.066c0,6.653,0.835,11.688,2.502,15.104c2.979,6.191,8.764,9.287,17.351,9.287
	c2.979,0,5.577-0.391,7.796-1.175c2.217-0.782,4.515-2.241,6.893-4.376c0.781-0.677,1.455-1.459,2.023-2.349
	c0.566-0.889,0.922-1.423,1.063-1.601v8.219h14.783V72.633H521.92v31.649c0,3.737-0.497,6.743-1.486,9.021
	c-1.913,4.199-5.454,6.298-10.622,6.298c-4.037,0-6.745-1.477-8.125-4.43c-0.779-1.672-1.17-4.163-1.17-7.472V72.633H484.933z"/>
<path fill="#FFFFFF" d="M576.361,83.628c3.59,0,6.597,1.046,9.023,3.136c2.423,2.091,3.775,5.154,4.051,9.193h-26.206
	c0.554-3.788,1.902-6.79,4.053-9.006C569.431,84.736,572.457,83.628,576.361,83.628L576.361,83.628z M576.357,71.085
	c-8.526,0-15.464,2.69-20.805,8.066c-5.345,5.378-8.014,13.106-8.014,23.183c0,10.755,2.957,18.519,8.877,23.292
	c5.918,4.771,12.751,7.157,20.491,7.157c9.381,0,16.675-2.829,21.888-8.486c3.348-3.559,5.229-7.063,5.638-10.515h-15.529
	c-0.906,1.708-1.95,3.043-3.131,4.002c-2.166,1.78-4.981,2.669-8.445,2.669c-3.269,0-6.064-0.729-8.389-2.188
	c-3.817-2.349-5.846-6.44-6.082-12.275h42.371c0.076-5.024-0.092-8.874-0.501-11.546c-0.708-4.562-2.253-8.57-4.637-12.027
	c-2.644-3.919-5.995-6.789-10.052-8.607C585.979,71.995,581.419,71.085,576.357,71.085L576.357,71.085z"/>
<path fill="#FFFFFF" d="M637.95,52.138v13.931h23.645v64.74h16.545v-64.74h23.537V52.138H637.95z"/>
<path fill="#FFFFFF" d="M726.23,83.628c3.59,0,6.597,1.046,9.023,3.136c2.423,2.091,3.775,5.154,4.051,9.193h-26.206
	c0.554-3.788,1.902-6.79,4.053-9.006C719.3,84.736,722.326,83.628,726.23,83.628L726.23,83.628z M726.227,71.085
	c-8.528,0-15.464,2.69-20.805,8.066c-5.345,5.378-8.014,13.106-8.014,23.183c0,10.755,2.957,18.519,8.877,23.292
	c5.918,4.771,12.749,7.157,20.491,7.157c9.381,0,16.675-2.829,21.888-8.486c3.348-3.559,5.229-7.063,5.638-10.515h-15.529
	c-0.906,1.708-1.95,3.043-3.131,4.002c-2.166,1.78-4.981,2.669-8.445,2.669c-3.269,0-6.064-0.729-8.389-2.188
	c-3.817-2.349-5.846-6.44-6.082-12.275h42.371c0.076-5.024-0.092-8.874-0.501-11.546c-0.708-4.562-2.253-8.57-4.637-12.027
	c-2.644-3.919-5.995-6.789-10.052-8.607C735.849,71.995,731.288,71.085,726.227,71.085L726.227,71.085z"/>
<path fill="#FFFFFF" d="M813.171,93.501c-0.855-8.29-3.605-14.072-8.252-17.346c-4.651-3.273-10.624-4.91-17.927-4.91
	c-8.581,0-15.313,2.775-20.194,8.326c-4.879,5.55-7.318,13.316-7.318,23.294c0,8.844,2.208,16.041,6.625,21.591
	c4.417,5.552,11.309,8.327,20.675,8.327c9.368,0,16.438-3.327,21.21-9.981c2.992-4.127,4.665-8.504,5.022-13.13H797.48
	c-0.322,3.062-1.229,5.552-2.728,7.474c-1.498,1.92-4.031,2.881-7.598,2.881c-5.029,0-8.453-2.419-10.273-7.258
	c-0.998-2.591-1.497-6.016-1.497-10.276c0-4.469,0.499-8.056,1.497-10.752c1.89-5.088,5.403-7.633,10.541-7.633
	c3.602,0,6.259,1.174,7.971,3.523c1.177,1.744,1.908,3.7,2.193,5.871H813.171z"/>
<path fill="#FFFFFF" d="M855.636,71.085c-3.188,0-6.227,0.667-9.112,2.001c-2.889,1.334-5.43,3.691-7.626,7.072V52.405h-15.211
	v78.403h15.211V99.284c0-4.987,1.033-8.824,3.099-11.514s5.096-4.035,9.086-4.035c3.85,0,6.465,1.356,7.842,4.062
	c1.059,1.923,1.59,4.453,1.59,7.587v35.425h15.531V96.621c0-5.2-0.177-8.947-0.533-11.246c-0.354-2.295-1.327-4.53-2.92-6.704
	c-1.879-2.563-4.281-4.469-7.203-5.716C862.467,71.71,859.216,71.085,855.636,71.085L855.636,71.085z"/>
</svg>
