<?xml version="1.0" encoding="utf-8"?>
<!-- Generator: Adobe Illustrator 16.0.4, SVG Export Plug-In . SVG Version: 6.00 Build 0)  -->
<!DOCTYPE svg PUBLIC "-//W3C//DTD SVG 1.1//EN" "http://www.w3.org/Graphics/SVG/1.1/DTD/svg11.dtd">
<svg version="1.1" id="Layer_1" xmlns="http://www.w3.org/2000/svg" xmlns:xlink="http://www.w3.org/1999/xlink" x="0px" y="0px"
	 width="201.17px" height="201.173px" viewBox="0 0 201.17 201.173" enable-background="new 0 0 201.17 201.173"
	 xml:space="preserve">
<rect x="174.496" y="48.58" fill="#497BBE" width="3.75" height="152.52"/>
<path fill="#35A1D9" d="M0.064,51.377c0.164-0.217,0.304-0.457,0.494-0.647c8.218-8.225,16.44-16.446,24.664-24.666
	c0.14-0.139,0.302-0.255,0.454-0.381c0.52,0.005,1.039,0.016,1.559,0.016c43.418,0.001,86.836,0.001,130.252,0
	c5.998,0,11.994-0.007,17.992-0.012c0.547,0.522,1.106,1.033,1.642,1.567c7.718,7.713,15.435,15.428,23.144,23.149
	c0.303,0.303,0.705,0.532,0.838,0.985c-8.549,0.01-17.096,0.021-25.643,0.031c-8.395-0.009-16.788-0.018-25.182-0.027
	c-0.168,0.001-0.336,0.002-0.504,0.003c-0.199-0.005-0.399-0.016-0.6-0.016c-32.277,0-64.557-0.001-96.836,0.001
	c-0.319,0-0.639,0.023-0.958,0.036c-8.559,0-17.119,0.001-25.678,0.002c-8.455-0.001-16.909-0.003-25.363-0.004
	C0.249,51.401,0.156,51.389,0.064,51.377z"/>
<path fill="#4667B1" d="M149.774,51.395c0.168-0.001,0.336-0.002,0.504-0.003c0.166,0.479,0.592,0.742,0.925,1.075
	c8.009,8.03,16.024,16.054,24.039,24.079c0.149,0.173,0.301,0.346,0.45,0.519c-0.422,0.442-0.221,0.991-0.221,1.487
	c-0.013,40.851-0.014,81.699-0.015,122.548c-8.56,0-17.117,0-25.675,0c-0.014-8.625-0.027-17.252-0.04-25.879
	c0-8.479,0-16.961,0-25.438C149.756,149.58,149.778,83.991,149.774,51.395z"/>
<path fill="#F05243" d="M149.743,149.779c0,8.479,0,16.96,0,25.438c-40.656,0-81.312,0-121.968-0.001
	c-0.24,0-0.48,0.012-0.719,0.001c-0.694-0.028-0.55,0.373-0.409,0.778c-2.664-2.335-5.058-4.944-7.565-7.438
	c-6.07-6.037-12.122-12.09-18.176-18.143c-0.25-0.25-0.454-0.547-0.679-0.822c0.517-0.019,1.035-0.05,1.552-0.051
	c7.975-0.011,15.949-0.018,23.923-0.025c8.547,0.008,17.094,0.015,25.642,0.021c0.422,0.467,0.974,0.228,1.458,0.228
	C85.115,149.779,117.429,149.779,149.743,149.779z"/>
<path fill="#4BBAEB" d="M175.479,25.687c-5.996,0.004-11.994,0.012-17.99,0.012c-43.418,0.001-86.835,0.001-130.253,0
	c-0.52,0-1.039-0.01-1.559-0.016c1.313-1.341,2.617-2.692,3.943-4.02c6.922-6.931,13.859-13.848,20.765-20.795
	C50.998,0.25,51.601,0,52.474,0c32.067,0.022,64.134,0.02,96.201,0.013c0.694,0,1.276,0.058,1.832,0.616
	c8.184,8.215,16.393,16.403,24.596,24.599C175.24,25.368,175.354,25.533,175.479,25.687z"/>
<path fill="#D94133" d="M26.647,175.998c-0.141-0.405-0.286-0.809,0.409-0.777c0.239,0.01,0.479-0.002,0.719-0.002
	c40.656,0.002,81.312,0.002,121.968,0.002c0.013,8.625,0.025,17.252,0.04,25.879c-0.399,0.015-0.798,0.037-1.197,0.037
	c-31.835,0.002-63.671-0.002-95.506,0.023c-1,0-1.698-0.282-2.404-0.992c-7.812-7.863-15.657-15.695-23.49-23.538
	C26.99,176.436,26.826,176.209,26.647,175.998z"/>
<path fill="#5174B9" d="M175.458,201.1c0.001-40.85,0.002-81.699,0.016-122.549c0-0.496-0.201-1.045,0.221-1.487
	c0.354,0.321,0.72,0.628,1.058,0.965c7.794,7.789,15.584,15.582,23.379,23.37c0.306,0.307,0.657,0.566,0.986,0.85
	c0.009,0.521,0.024,1.039,0.024,1.559c0.002,31.952-0.006,63.906,0.028,95.859c0.002,1.186-0.245,1.52-1.479,1.507
	C191.614,201.096,183.536,201.111,175.458,201.1z"/>
<path fill="#F19643" d="M25.702,149.521c-7.974,0.008-15.948,0.015-23.923,0.023c-0.517,0.001-1.035,0.032-1.552,0.051
	c-0.341-0.328-0.197-0.754-0.197-1.135c-0.007-32.083-0.007-64.167-0.005-96.25c0-0.279,0.026-0.558,0.04-0.836
	c0.092,0.012,0.184,0.024,0.276,0.037c0.121,0.155,0.229,0.324,0.367,0.462c8.151,8.155,16.304,16.309,24.46,24.459
	c0.167,0.167,0.365,0.304,0.549,0.454c0.01,0.069,0.02,0.137,0.028,0.206c-0.014,0.559-0.04,1.118-0.04,1.676
	C25.702,102.289,25.702,125.904,25.702,149.521z"/>
<path fill="#263F89" d="M201.117,102.247c-0.329-0.282-0.681-0.543-0.986-0.849c-7.795-7.79-15.585-15.583-23.379-23.371
	c-0.338-0.337-0.704-0.644-1.058-0.965c-0.15-0.173-0.301-0.346-0.451-0.519c0.367-0.315,0.214-0.743,0.214-1.121
	c0.008-8.002,0.005-16.004,0.004-24.006c8.547-0.01,17.095-0.021,25.642-0.031c0.015,0.438,0.039,0.877,0.039,1.316
	c0.002,16.115,0.002,32.229,0.002,48.345C201.142,101.448,201.125,101.848,201.117,102.247z"/>
<path fill="#75401B" d="M51.382,51.417c0,16.607,0.001,33.215,0,49.822c0,0.396-0.025,0.797-0.038,1.196
	c-0.296-0.267-0.604-0.519-0.885-0.8c-5.657-5.651-11.307-11.31-16.965-16.958c-2.574-2.57-5.165-5.123-7.748-7.683
	c-0.008-0.069-0.018-0.137-0.028-0.206c-0.005-8.457-0.009-16.914-0.013-25.372C34.263,51.418,42.823,51.417,51.382,51.417z"/>
<path fill="#8C4D21" d="M25.704,51.418c0.004,8.458,0.008,16.915,0.013,25.372c-0.184-0.151-0.382-0.288-0.549-0.455
	c-8.156-8.15-16.309-16.304-24.46-24.459c-0.138-0.138-0.246-0.308-0.367-0.462C8.795,51.416,17.249,51.417,25.704,51.418z"/>
<path fill="#273774" d="M175.46,51.418c0.001,8.002,0.004,16.004-0.004,24.006c0,0.377,0.154,0.805-0.214,1.121
	c-8.015-8.025-16.03-16.048-24.039-24.079c-0.333-0.333-0.757-0.597-0.925-1.075C158.672,51.4,167.065,51.41,175.46,51.418z"/>
<path fill="#D87D32" d="M25.745,76.996c2.583,2.56,5.174,5.113,7.748,7.683c5.659,5.649,11.309,11.307,16.965,16.958
	c0.281,0.281,0.589,0.533,0.885,0.799c0.013,1.598,0.038,3.193,0.038,4.791c0.003,13.627,0.002,27.252,0,40.879
	c0,0.479-0.025,0.957-0.038,1.437c-8.547-0.006-17.095-0.012-25.642-0.021c0-23.614,0-47.231,0.003-70.85
	C25.705,78.113,25.731,77.554,25.745,76.996z"/>
</svg>
